
<svg width="20" height="20" viewBox="0 0 20 20" fill="none" xmlns="http://www.w3.org/2000/svg">
<path fill-rule="evenodd" clip-rule="evenodd" d="M0 5C0 2.23858 2.23858 0 5 0H15C17.7614 0 20 2.23858 20 5V15C20 17.7614 17.7614 20 15 20H5C2.23858 20 0 17.7614 0 15V5ZM5 2C3.34315 2 2 3.34315 2 5V15C2 16.6569 3.34315 18 5 18H15C16.6569 18 18 16.6569 18 15V5C18 3.34315 16.6569 2 15 2H5ZM7.17153 7.17156C7.56205 6.78104 8.19522 6.78104 8.58574 7.17156L9.99998 8.5858L11.4142 7.17157C11.8047 6.78105 12.4379 6.78105 12.8284 7.17157C13.219 7.5621 13.219 8.19526 12.8284 8.58579L11.4142 10L12.8284 11.4142C13.2189 11.8047 13.2189 12.4379 12.8284 12.8284C12.4379 13.2189 11.8047 13.2189 11.4142 12.8284L9.99998 11.4142L8.58579 12.8284C8.19526 13.219 7.5621 13.219 7.17157 12.8284C6.78105 12.4379 6.78105 11.8047 7.17157 11.4142L8.58577 10L7.17153 8.58577C6.78101 8.19525 6.78101 7.56208 7.17153 7.17156Z" fill="white"/>
</svg>
