<svg width="19" height="19" viewBox="0 0 19 19" fill="none" xmlns="http://www.w3.org/2000/svg">
<path fill-rule="evenodd" clip-rule="evenodd" d="M10.8787 1.70711C12.0503 0.535536 13.9497 0.535534 15.1213 1.70711L17.2929 3.87868C18.4645 5.05026 18.4645 6.94975 17.2929 8.12132L6.70711 18.7071C6.51957 18.8946 6.26522 19 6 19H1C0.447715 19 0 18.5523 0 18V13C0 12.7348 0.105357 12.4804 0.292893 12.2929L10.8787 1.70711ZM13.7071 3.12132C13.3166 2.7308 12.6834 2.7308 12.2929 3.12132L11.4142 4L15 7.58579L15.8787 6.70711C16.2692 6.31658 16.2692 5.68342 15.8787 5.2929L13.7071 3.12132ZM13.5858 9L10 5.41421L2 13.4142V17H5.58579L13.5858 9Z" fill="#ae4458"/>
</svg>
