<svg width="1440" height="800" viewBox="0 0 1440 800" fill="none" xmlns="http://www.w3.org/2000/svg">
<g clip-path="url(#clip0_1_2)">
<rect width="1440" height="800" fill="#0C091E"/>
<g filter="url(#filter0_f_1_2)">
<circle cx="1193" cy="53" r="2" fill="white"/>
</g>
<circle cx="1193" cy="53" r="2" fill="white"/>
<g filter="url(#filter1_f_1_2)">
<circle cx="284" cy="85" r="2" fill="white"/>
</g>
<circle cx="284" cy="85" r="2" fill="white"/>
<g filter="url(#filter2_f_1_2)">
<circle cx="72" cy="59" r="2" fill="white"/>
</g>
<circle cx="72" cy="59" r="2" fill="white"/>
<g filter="url(#filter3_f_1_2)">
<circle cx="1016" cy="28" r="2" fill="white"/>
</g>
<circle cx="1016" cy="28" r="2" fill="white"/>
<g filter="url(#filter4_f_1_2)">
<circle cx="883" cy="65" r="2" fill="white"/>
</g>
<circle cx="883" cy="65" r="2" fill="white"/>
<g filter="url(#filter5_f_1_2)">
<circle cx="1390" cy="65" r="2" fill="white"/>
</g>
<circle cx="1390" cy="65" r="2" fill="white"/>
<g filter="url(#filter6_f_1_2)">
<circle cx="677" cy="32" r="2" fill="white"/>
</g>
<circle cx="677" cy="32" r="2" fill="white"/>
<g filter="url(#filter7_f_1_2)">
<circle cx="963" cy="213" r="2" fill="white"/>
</g>
<circle cx="963" cy="213" r="2" fill="white"/>
<g filter="url(#filter8_f_1_2)">
<circle cx="1120" cy="408" r="2" fill="white"/>
</g>
<circle cx="1120" cy="408" r="2" fill="white"/>
<g filter="url(#filter9_f_1_2)">
<circle cx="1299" cy="740" r="2" fill="white"/>
</g>
<circle cx="1299" cy="740" r="2" fill="white"/>
<g filter="url(#filter10_f_1_2)">
<circle cx="1018" cy="768" r="2" fill="white"/>
</g>
<circle cx="1018" cy="768" r="2" fill="white"/>
<g filter="url(#filter11_f_1_2)">
<circle cx="1312" cy="452" r="2" fill="white"/>
</g>
<circle cx="1312" cy="452" r="2" fill="white"/>
<g filter="url(#filter12_f_1_2)">
<circle cx="1394" cy="664" r="2" fill="white"/>
</g>
<circle cx="1394" cy="664" r="2" fill="white"/>
<g filter="url(#filter13_f_1_2)">
<circle cx="1400" cy="318" r="2" fill="white"/>
</g>
<circle cx="1400" cy="318" r="2" fill="white"/>
<g filter="url(#filter14_f_1_2)">
<circle cx="634" cy="466" r="2" fill="white"/>
</g>
<circle cx="634" cy="466" r="2" fill="white"/>
<g filter="url(#filter15_f_1_2)">
<circle cx="805" cy="452" r="2" fill="white"/>
</g>
<circle cx="805" cy="452" r="2" fill="white"/>
<g filter="url(#filter16_f_1_2)">
<circle cx="943" cy="586" r="2" fill="white"/>
</g>
<circle cx="943" cy="586" r="2" fill="white"/>
<g filter="url(#filter17_f_1_2)">
<circle cx="1400" cy="507" r="2" fill="white"/>
</g>
<circle cx="1400" cy="507" r="2" fill="white"/>
<g filter="url(#filter18_f_1_2)">
<circle cx="1178" cy="474" r="2" fill="white"/>
</g>
<circle cx="1178" cy="474" r="2" fill="white"/>
<g filter="url(#filter19_f_1_2)">
<circle cx="355" cy="30" r="2" fill="white"/>
</g>
<circle cx="355" cy="30" r="2" fill="white"/>
<g filter="url(#filter20_f_1_2)">
<circle cx="43" cy="206" r="2" fill="white"/>
</g>
<circle cx="43" cy="206" r="2" fill="white"/>
<g filter="url(#filter21_f_1_2)">
<circle cx="887" cy="303" r="2" fill="white"/>
</g>
<circle cx="887" cy="303" r="2" fill="white"/>
<g filter="url(#filter22_f_1_2)">
<circle cx="508" cy="207" r="2" fill="white"/>
</g>
<circle cx="508" cy="207" r="2" fill="white"/>
<g filter="url(#filter23_f_1_2)">
<circle cx="574" cy="309" r="2" fill="white"/>
</g>
<circle cx="574" cy="309" r="2" fill="white"/>
<g filter="url(#filter24_f_1_2)">
<circle cx="794" cy="730" r="2" fill="white"/>
</g>
<circle cx="794" cy="730" r="2" fill="white"/>
<g filter="url(#filter25_f_1_2)">
<circle cx="523" cy="522" r="2" fill="white"/>
</g>
<circle cx="523" cy="522" r="2" fill="white"/>
<g filter="url(#filter26_f_1_2)">
<circle cx="564" cy="682" r="2" fill="white"/>
</g>
<circle cx="564" cy="682" r="2" fill="white"/>
<g filter="url(#filter27_f_1_2)">
<circle cx="289" cy="736" r="2" fill="white"/>
</g>
<circle cx="289" cy="736" r="2" fill="white"/>
<g filter="url(#filter28_f_1_2)">
<circle cx="43" cy="766" r="2" fill="white"/>
</g>
<circle cx="43" cy="766" r="2" fill="white"/>
<g filter="url(#filter29_f_1_2)">
<circle cx="325" cy="314" r="2" fill="white"/>
</g>
<circle cx="325" cy="314" r="2" fill="white"/>
<g filter="url(#filter30_f_1_2)">
<circle cx="101" cy="521" r="2" fill="white"/>
</g>
<circle cx="101" cy="521" r="2" fill="white"/>
<g filter="url(#filter31_f_1_2)">
<circle cx="155" cy="647" r="2" fill="white"/>
</g>
<circle cx="155" cy="647" r="2" fill="white"/>
<path d="M956.477 418C964.902 347.792 1027.51 332.69 1081.48 287C1108.06 264.491 1126.48 256.185 1152.48 233C1198.38 192.065 1192.81 102.333 1254.48 113C1316.14 123.667 1379.4 101.789 1409.98 157C1444.89 220.043 1375.48 214.5 1331.48 324C1287.48 433.5 1391.84 416.314 1389.48 482C1387.98 523.814 1360.18 543.159 1359.98 585C1359.7 640.305 1432.52 666.997 1409.98 717.5C1382.48 779.094 1238.48 738 1238.48 738C1186.64 748 1022.77 788.04 1015.48 700C1011.2 648.396 1077.1 636.595 1081.48 585C1088.37 503.829 946.772 498.883 956.477 418Z" fill="#E5E5E5" fill-opacity="0.06"/>
<g clip-path="url(#clip1_1_2)">
<path d="M1133.19 574.376C1073.93 579.959 1042.02 650.111 1081.28 698.013C1099.42 720.233 1129.72 731.224 1159.58 723.58C1175.58 719.481 1189.41 710.384 1199.26 698.548C1242.29 647.134 1201.76 567.876 1133.19 574.376Z" fill="url(#paint0_radial_1_2)"/>
<path d="M1140.39 705.028C1119.56 705.028 1101.4 693.552 1092.01 676.606C1071.27 639.243 1099.87 593.887 1141.61 595.215C1168.17 595.751 1190.6 615.21 1194.88 641.087C1200.5 674.484 1174.54 705.028 1140.39 705.028Z" fill="url(#paint1_radial_1_2)"/>
<g opacity="0.75">
<path d="M1162.33 658.991C1160.04 658.424 1159.4 661.257 1160.7 661.896C1161.99 662.545 1165.25 664.482 1165.9 663.184C1166.55 661.896 1164.93 659.64 1162.33 658.991Z" fill="#056DB1"/>
<path d="M1185.07 635.092C1182.85 635.597 1180.2 636.709 1182.47 638.327C1184.75 639.944 1188.31 639.295 1188.64 637.358C1188.96 635.411 1189.3 634.124 1185.07 635.092Z" fill="#056DB1"/>
<path d="M1140.56 687.093C1135.79 684.25 1128.86 683.22 1128.21 686.125C1127.55 689.03 1132.1 693.552 1137.63 692.903C1143.16 692.264 1143.81 689.03 1140.56 687.093Z" fill="#056DB1"/>
<path d="M1156.1 702.772C1151.8 704.039 1147.28 704.801 1142.61 704.976C1143.68 698.249 1150.11 700.371 1153.55 701.299C1154.56 701.577 1155.39 702.123 1156.1 702.772Z" fill="#056DB1"/>
<path d="M1110.34 686.774C1112.45 687.691 1113.92 683.22 1111 679.346C1108.08 675.473 1106.77 670.621 1103.2 669.653C1099.62 668.685 1097.67 681.283 1110.34 686.774Z" fill="#056DB1"/>
<path d="M1096.05 670.941C1094.9 671.147 1094.42 673.526 1097.02 673.845C1099.62 674.175 1099.62 670.302 1096.05 670.941Z" fill="#056DB1"/>
<path d="M1124.96 657.703C1122.67 657.497 1120.42 658.672 1120.74 661.257C1121.06 663.843 1124.63 661.257 1126.26 661.257C1127.89 661.257 1128.54 658.023 1124.96 657.703Z" fill="#056DB1"/>
<path d="M1147.39 627.665C1145.42 626.738 1145.11 630.899 1146.73 631.538C1148.36 632.187 1152.91 630.24 1147.39 627.665Z" fill="#056DB1"/>
</g>
<path d="M1126.59 648.659C1115.55 650.596 1113.92 650.915 1103.85 659.321C1097.19 664.873 1090.23 663.081 1086.3 661.226C1085.56 657.642 1085.17 653.923 1085.17 650.111C1085.17 634.495 1091.73 620.392 1102.25 610.4C1104.42 611.677 1106.66 613.408 1108.4 615.715C1113.27 622.174 1112.29 624.76 1126.59 632.187C1140.88 639.614 1137.64 646.722 1126.59 648.659Z" fill="url(#paint2_linear_1_2)"/>
<path d="M1190.31 626.583C1180.12 624.461 1173.16 635.926 1166.22 635.092C1158.1 634.124 1160.38 622.174 1153.55 609.575C1150.13 603.271 1149.89 598.903 1150.5 596.122C1168.15 599.357 1182.84 610.935 1190.31 626.583Z" fill="url(#paint3_linear_1_2)"/>
<path d="M1195.63 650.111C1195.63 671.425 1183.42 689.895 1165.58 699.001C1161.51 692.604 1168.11 687.855 1175.97 682.9C1185.72 676.761 1176.62 674.175 1178.24 664.162C1179.87 654.149 1173.69 653.5 1176.61 645.105C1178.7 639.109 1189.56 644.796 1195.6 648.545C1195.62 649.061 1195.63 649.586 1195.63 650.111Z" fill="url(#paint4_linear_1_2)"/>
<path d="M1143.81 666.748C1137.91 668.571 1134.71 661.577 1127.24 663.194C1119.77 664.811 1113.6 678.049 1123.67 677.729C1133.74 677.41 1136.34 676.112 1143.81 681.283C1151.28 686.454 1160.06 682.9 1162.66 674.824C1165.25 666.748 1163.62 660.608 1143.81 666.748Z" fill="url(#paint5_linear_1_2)"/>
<path d="M1156.15 642.519C1153.04 643.508 1152.26 645.105 1153.23 647.042C1154.2 648.978 1158.1 648.659 1160.05 651.564C1161.99 654.469 1166.87 658.023 1168.17 651.564C1169.48 645.105 1163.3 640.253 1156.15 642.519Z" fill="url(#paint6_linear_1_2)"/>
<path opacity="0.5" d="M1144.78 625.718C1144.2 630.024 1140.24 625.718 1133.74 624.43C1127.24 623.142 1124.64 619.259 1127.56 616.673C1130.49 614.088 1134.38 612.151 1138.29 614.407C1142.18 616.673 1145.43 620.876 1144.78 625.718Z" fill="#056DB1"/>
<path d="M1137.96 600.201C1129.83 600.201 1125.94 604.724 1118.47 607.309C1114.01 608.844 1110.49 607.062 1108.37 605.373C1117.4 598.965 1128.46 595.195 1140.4 595.195C1140.82 595.195 1141.22 595.195 1141.62 595.216C1142.19 597.544 1141.99 600.201 1137.96 600.201Z" fill="url(#paint7_linear_1_2)"/>
<path opacity="0.45" d="M1192.99 666.913C1188.49 680.871 1178.51 692.398 1165.58 699.001C1162.56 700.536 1159.39 701.803 1156.1 702.782C1151.8 704.049 1147.28 704.811 1142.61 704.986C1141.87 705.017 1141.14 705.028 1140.39 705.028C1119.56 705.028 1101.4 693.552 1092.01 676.606C1089.37 671.868 1087.43 666.696 1086.3 661.226C1085.56 657.642 1085.17 653.923 1085.17 650.111C1085.17 643.477 1086.35 637.121 1088.51 631.239C1094.76 649.792 1109.06 673.732 1141.56 678.172C1147.9 679.037 1153.83 679.151 1159.36 678.677C1172.94 677.492 1184.11 672.774 1192.99 666.913Z" fill="url(#paint8_linear_1_2)"/>
<path opacity="0.45" d="M1195.63 650.111C1195.63 655.973 1194.7 661.618 1193 666.913C1188.49 680.871 1178.51 692.398 1165.58 699.001C1162.56 700.536 1159.39 701.803 1156.1 702.782C1151.8 704.049 1147.28 704.811 1142.61 704.986C1141.87 705.017 1141.14 705.028 1140.39 705.028C1119.56 705.028 1101.4 693.552 1092.01 676.606C1101.56 680.511 1112.94 683.179 1126.43 683.704C1139.51 684.219 1150.37 682.21 1159.36 678.667C1178.7 671.064 1189.47 656.354 1195.32 644.24C1195.47 645.651 1195.56 647.093 1195.61 648.535C1195.62 649.061 1195.63 649.586 1195.63 650.111Z" fill="url(#paint9_linear_1_2)"/>
<path d="M1194.89 641.118C1194.89 641.118 1187.03 612.48 1150.87 603.055C1129.19 597.399 1114.15 602.498 1105.58 607.484C1132.94 585.275 1174.79 594.092 1190.31 626.583C1193.92 634.113 1194.63 640.067 1194.89 641.118Z" fill="url(#paint10_linear_1_2)"/>
</g>
<rect width="160.252" height="150.433" rx="15" transform="matrix(0.835813 0.549014 -0.549051 0.835789 1217.76 68.9114)" fill="#686767"/>
<rect width="160.252" height="3.27028" transform="matrix(0.835813 0.549014 -0.549051 0.835789 1195.31 103.076)" fill="#595959"/>
<rect width="160.252" height="3.27027" transform="matrix(0.835813 0.549015 -0.549051 0.835789 1186.33 116.742)" fill="#595959"/>
<ellipse cx="3.27046" cy="3.2703" rx="3.27046" ry="3.2703" transform="matrix(0.835813 0.549015 -0.549051 0.835789 1207.49 93.4697)" fill="#7D7D7D"/>
<ellipse cx="3.2704" cy="3.27026" rx="3.2704" ry="3.27026" transform="matrix(0.835811 0.549017 -0.549049 0.835791 1325.03 170.677)" fill="#7D7D7D"/>
<ellipse cx="3.27043" cy="3.27026" rx="3.27043" ry="3.27026" transform="matrix(0.835813 0.549015 -0.549051 0.835789 1186.84 124.902)" fill="#7D7D7D"/>
<ellipse cx="3.27046" cy="3.2703" rx="3.27046" ry="3.2703" transform="matrix(0.835813 0.549015 -0.549051 0.835789 1304.38 202.11)" fill="#7D7D7D"/>
<rect width="31.0692" height="83.392" rx="10" transform="matrix(0.999318 -0.0369264 0.0368827 0.99932 1263.44 188.835)" fill="#D6D6D6"/>
<ellipse cx="10.6289" cy="10.6284" rx="10.6289" ry="10.6284" transform="matrix(0.999318 -0.0369266 0.0368825 0.99932 1277.29 253.774)" fill="url(#paint11_radial_1_2)"/>
<rect width="31.0692" height="83.392" rx="10" transform="matrix(-0.294269 -0.955723 -0.95571 0.29431 1213.3 158.126)" fill="#D6D6D6"/>
<ellipse cx="10.6289" cy="10.6284" rx="10.6289" ry="10.6284" transform="matrix(-0.294269 -0.955723 -0.95571 0.294311 1148.38 166.662)" fill="url(#paint12_radial_1_2)"/>
<path d="M1234.82 257.181L1165.12 211.396L1125.72 271.369C1122.69 275.985 1123.97 282.185 1128.59 285.217L1138.52 291.743C1143.14 294.775 1149.34 293.492 1152.37 288.876L1171.01 260.506C1173.8 256.26 1179.5 255.079 1183.75 257.868C1187.99 260.657 1189.18 266.36 1186.39 270.605L1167.75 298.975C1164.72 303.591 1166 309.791 1170.62 312.823L1181.58 320.023C1186.19 323.055 1192.39 321.771 1195.43 317.155L1234.82 257.181Z" fill="#D6D6D6"/>
<rect width="106.289" height="103.014" transform="matrix(0.835813 0.549014 -0.549051 0.835789 1210.32 121.747)" fill="#E1E1E1"/>
<rect width="99.7485" height="29.4325" transform="matrix(0.835813 0.549014 -0.549051 0.835789 1165.47 195.974)" fill="#E1E1E1"/>
<rect width="8.17611" height="103.014" transform="matrix(0.835813 0.549015 -0.549051 0.835789 1223.98 130.725)" fill="url(#paint13_linear_1_2)"/>
<rect width="8.17612" height="103.014" transform="matrix(0.835813 0.549014 -0.549052 0.835788 1275.92 164.84)" fill="url(#paint14_linear_1_2)"/>
<rect width="106.289" height="3.27027" transform="matrix(0.835813 0.549014 -0.549051 0.835789 1155.55 205.112)" fill="#9A9A9A"/>
<rect width="11.4466" height="26.1622" rx="5.72329" transform="matrix(0.835814 0.549014 -0.549052 0.835788 1321.6 145.936)" fill="#D6D6D6"/>
<rect width="11.4465" height="26.1622" rx="5.72327" transform="matrix(0.835813 0.549015 -0.549051 0.835789 1223.19 81.2968)" fill="#D6D6D6"/>
<path d="M1318.31 159.425C1300.53 186.481 1264.19 194.006 1237.13 176.233C1210.07 158.459 1202.55 122.117 1220.32 95.0607C1238.1 68.0044 1274.44 60.4794 1301.5 78.2531C1328.56 96.0268 1336.08 132.369 1318.31 159.425Z" fill="#D6D6D6" stroke="#E1E1E1" stroke-width="0.5"/>
<path fill-rule="evenodd" clip-rule="evenodd" d="M1317.54 160.88C1299.11 185.848 1264.15 192.322 1237.89 175.075C1211.64 157.828 1203.69 123.171 1219.29 96.3388C1218.65 97.2111 1218.02 98.1059 1217.42 99.0231C1199.57 126.195 1207.13 162.692 1234.3 180.541C1261.48 198.391 1297.97 190.834 1315.82 163.662C1316.43 162.745 1317 161.817 1317.54 160.88Z" fill="#DDDDDD"/>
<path fill-rule="evenodd" clip-rule="evenodd" d="M1313.95 166.346C1295.52 191.315 1260.56 197.788 1234.3 180.541C1208.04 163.294 1200.1 128.638 1215.7 101.806C1215.05 102.678 1214.43 103.573 1213.83 104.49C1195.98 131.662 1203.54 168.158 1230.71 186.008C1257.88 203.857 1294.38 196.3 1312.23 169.129C1312.84 168.211 1313.41 167.284 1313.95 166.346Z" fill="#D6D6D6"/>
<path d="M1324.16 139.79C1315.39 117.401 1270.5 85.9591 1241.88 78.8972C1220.45 95.1422 1209.14 119.533 1218.97 145.039C1224.43 159.201 1232 166.081 1245.02 173.887C1254.65 179.662 1261.07 182.61 1272.29 182.999C1298.64 183.912 1320.86 155.232 1324.16 139.79Z" fill="black"/>
<rect x="1252.48" y="191.255" width="3.27044" height="1.63515" rx="0.817574" transform="rotate(13.3007 1252.48 191.255)" fill="#C4C4C4"/>
<rect width="1.63528" height="1.63508" rx="0.817539" transform="matrix(0.973176 0.230061 -0.230062 0.973176 1259.74 192.113)" fill="#C4C4C4"/>
<mask id="mask0_1_2" style="mask-type:alpha" maskUnits="userSpaceOnUse" x="1215" y="78" width="110" height="106">
<path d="M1324.16 139.792C1315.39 117.402 1270.5 85.9604 1241.88 78.8984C1220.45 95.1435 1209.14 119.534 1218.97 145.04C1224.43 159.202 1232 166.083 1245.02 173.888C1254.65 179.663 1261.07 182.611 1272.29 183C1298.64 183.914 1320.86 155.233 1324.16 139.792Z" fill="black"/>
</mask>
<g mask="url(#mask0_1_2)">
<rect width="16.3516" height="90.6049" transform="matrix(0.369765 0.929126 -0.929149 0.369707 1285.76 84.331)" fill="#484848"/>
<rect width="9.22658" height="95.5158" transform="matrix(0.369764 0.929126 -0.929149 0.369707 1302.67 106.532)" fill="#484848"/>
</g>
<ellipse cx="10.6289" cy="10.6284" rx="10.6289" ry="10.6284" transform="matrix(0.835813 0.549015 -0.549051 0.835789 1243.19 86.6036)" fill="#828282" fill-opacity="0.5"/>
<ellipse cx="5.72329" cy="5.72298" rx="5.72329" ry="5.72298" transform="matrix(0.835814 0.549013 -0.549053 0.835788 1256.85 95.5813)" fill="#828282" fill-opacity="0.5"/>
<ellipse cx="4.08804" cy="4.08785" rx="4.08804" ry="4.08785" transform="matrix(0.835812 0.549016 -0.54905 0.83579 1234.21 100.27)" fill="#828282" fill-opacity="0.5"/>
<ellipse cx="4.08805" cy="4.08785" rx="4.08805" ry="4.08785" transform="matrix(0.835813 0.549015 -0.549051 0.835789 1264.85 71.4907)" fill="#BC0D0D"/>
<ellipse cx="4.08808" cy="4.08786" rx="4.08808" ry="4.08786" transform="matrix(0.835814 0.549013 -0.549053 0.835788 1283.48 75.8994)" fill="#BC0D0D"/>
<rect width="44.151" height="22.8919" rx="5" transform="matrix(0.835813 0.549015 -0.549051 0.835789 1206.19 181.639)" fill="#273AE7"/>
<path d="M1227.63 199.634L1216.67 200.996L1222.7 203.733L1207.72 206.118" stroke="#D2CB15"/>
<g clip-path="url(#clip2_1_2)">
<path d="M86.3739 -207.939C-235.928 -177.352 -409.361 206.578 -195.905 468.794C-97.2945 590.437 67.4564 650.622 229.878 608.733C316.912 586.269 392.088 536.538 445.664 471.761C679.661 190.26 459.287 -243.542 86.3739 -207.939Z" fill="url(#paint15_radial_1_2)"/>
<path d="M447.359 205.236C447.359 224.026 445.735 242.463 442.629 260.335C440.935 269.942 438.888 279.408 436.417 288.732C422.724 339.876 396.747 385.933 361.877 423.655C349.242 437.359 335.407 449.933 320.513 461.236C306.819 471.691 292.207 481.086 276.89 489.28C256.137 500.371 234.044 509.201 210.891 515.558C183.856 522.975 155.409 526.861 126.045 526.861C112.563 526.861 99.2922 526.013 86.3041 524.388C-22.5416 510.967 -114.588 443.011 -161.599 348.706C-179.952 311.973 -191.457 271.284 -194.492 228.264C-195.057 220.635 -195.34 212.935 -195.34 205.236C-195.34 156.706 -184.61 110.719 -165.411 69.4649C-148.258 32.5907 -124.258 -0.468956 -95.1761 -28.0893C-68.2823 -53.6611 -36.9415 -74.6412 -2.42427 -89.6876C36.8929 -106.853 80.3746 -116.39 125.974 -116.39C264.537 -116.39 382.63 -28.6544 427.735 94.4009C438.959 125.059 445.664 157.836 447.076 192.096C447.288 196.405 447.359 200.785 447.359 205.236Z" fill="url(#paint16_radial_1_2)"/>
<path d="M90.7526 294.03C90.3291 296.644 89.4115 299.116 88.0703 301.377C77.8352 319.743 42.1885 328.785 2.4478 321.933C-32.14 315.929 -59.7397 299.54 -68.6338 281.739C-71.2455 276.512 -72.2336 271.214 -71.316 265.916C-67.2925 242.746 -28.3989 237.165 16.3535 245.006C61.1059 252.706 94.7761 270.86 90.7526 294.03Z" fill="#BCBCBC"/>
<path d="M-4.47047 140.882L-4.54113 140.953C-13.4351 154.374 -41.1759 142.083 -73.4344 120.962C-99.7635 103.725 -118.54 86.5598 -119.81 73.4913C-120.093 70.5244 -119.457 67.6988 -117.834 65.1558C-108.94 51.5928 -73.6461 50.6745 -41.3171 71.8666C-8.98808 93.0587 4.42354 127.319 -4.47047 140.882Z" fill="#BCBCBC"/>
<path d="M351.572 338.958C325.525 360.715 294.326 366.295 281.973 351.39C281.338 350.613 280.773 349.836 280.279 348.989C270.82 333.518 282.114 305.757 306.82 285.2C331.949 264.22 361.807 258.286 375.007 271.214C375.501 271.708 375.995 272.203 376.419 272.697C388.772 287.602 377.69 317.271 351.572 338.958Z" fill="#BCBCBC"/>
<path d="M163.668 160.591C137.339 181.43 110.587 192.944 95.2692 173.589C93.7868 171.752 92.5869 169.774 91.528 167.655C81.787 148.017 91.3869 119.549 115.245 100.688C141.574 79.8492 177.504 70.0302 201.997 101.041C202.139 101.253 202.35 101.465 202.421 101.677C216.821 120.821 189.786 139.964 163.668 160.591Z" fill="#BCBCBC"/>
<path d="M58.4927 451.629C54.681 455.302 47.1281 457.351 35.2694 456.786C-8.21244 454.878 -55.4354 401.898 -42.2355 384.874C-42.0238 384.591 -41.812 384.379 -41.6003 384.167C-27.9063 368.697 6.39914 396.529 23.9048 405.713C52.775 420.83 68.5867 441.951 58.4927 451.629Z" fill="#BCBCBC"/>
<path d="M229.032 412.565C229.103 422.595 215.48 433.192 194.021 434.11C154.775 435.805 132.398 428.247 127.104 414.26C126.54 412.776 126.187 411.222 125.975 409.527C124.069 392.503 159.998 395.399 178.915 394.41C214.421 392.503 228.962 402.251 229.032 412.565Z" fill="#BCBCBC"/>
<path d="M347.971 186.869C343.666 193.298 335.336 197.677 324.536 197.677C290.513 197.677 245.126 173.094 250.843 150.348C251.478 147.735 252.467 145.474 253.596 143.637C262.349 129.509 284.443 136.361 305.69 140.882C348.183 149.924 357.289 173.094 347.971 186.869Z" fill="#BCBCBC"/>
<path d="M237.502 19.8048C237.079 18.8158 236.867 17.6856 236.726 16.4847C235.879 6.80697 245.408 -7.32108 263.973 -12.4072C276.043 -15.7273 292.349 -15.3035 302.443 -9.08711C306.89 -6.33214 310.066 -2.51755 311.266 2.70983C314.089 15.7076 243.502 34.8511 237.502 19.8048Z" fill="#BCBCBC"/>
<path d="M400.065 108.741C398.583 109.447 396.818 109.589 394.912 109.094C387.006 107.046 376.701 94.8955 373.595 76.5997C371.83 65.8623 377.195 55.5489 384.183 52.2994C391.947 48.6261 401.759 53.7122 405.712 76.5997C408.041 89.5975 407.688 104.926 400.065 108.741Z" fill="#BCBCBC"/>
<path d="M361.878 423.655C337.526 450.004 308.797 472.256 276.891 489.209C273.291 487.443 270.044 484.83 268.774 481.086C267.644 477.765 268.138 473.527 271.597 468.158C284.797 447.32 298.067 415.178 328.279 413.271C337.102 412.706 344.09 413.765 349.667 415.743C355.031 417.721 358.984 420.547 361.878 423.655Z" fill="#BCBCBC"/>
<path d="M210.821 515.488C183.786 522.905 155.339 526.79 125.975 526.79C112.493 526.79 99.2225 525.942 86.2344 524.318C86.2344 520.503 86.9403 516.406 89.2697 512.945C91.5285 509.624 95.2696 506.94 101.411 505.951C124.069 502.137 135.434 487.02 167.551 488.927C184.21 489.916 195.857 498.039 203.127 505.598C206.727 509.413 209.198 512.945 210.821 515.488Z" fill="#BCBCBC"/>
<path d="M71.1974 354.64C62.7269 350.401 56.0917 347.081 57.9975 364.105C59.9034 381.13 73.1032 384.944 84.4678 384.944C95.7618 384.944 78.7503 358.454 71.1974 354.64Z" fill="#9B9B9B"/>
<path d="M447.358 205.235C447.358 224.026 445.734 242.463 442.629 260.335C439.876 259.275 437.052 257.368 434.088 254.401C415.17 235.47 429.499 208.626 434.088 199.514C439.17 189.341 444.252 190.26 447.076 192.026C447.287 196.405 447.358 200.785 447.358 205.235Z" fill="#9B9B9B"/>
<path d="M252.678 226.004C241.737 224.661 235.666 233.562 252.678 241.121C269.689 248.75 267.783 227.911 252.678 226.004Z" fill="#9B9B9B"/>
<path d="M114.68 8.50235C109.033 10.4096 101.481 16.0609 114.68 17.9681C127.88 19.8048 120.327 6.59506 114.68 8.50235Z" fill="#9B9B9B"/>
<path d="M146.797 8.50232C139.88 4.47582 139.244 23.6193 144.891 31.1778C150.538 38.7363 169.456 21.712 146.797 8.50232Z" fill="#9B9B9B"/>
<path d="M207.29 456.856C203.196 457.774 201.643 464.415 212.937 468.229C224.301 471.973 224.301 453.042 207.29 456.856Z" fill="#9B9B9B"/>
<path d="M42.8222 488.997C37.1752 490.905 31.4576 494.649 42.8222 498.463C54.1868 502.207 48.4692 487.09 42.8222 488.997Z" fill="#9B9B9B"/>
<path d="M52.2808 210.887C42.6809 211.381 63.6454 224.096 69.2923 226.004C74.9393 227.911 91.9509 208.979 52.2808 210.887Z" fill="#9B9B9B"/>
<path d="M362.3 161.721C357.571 165.394 366.112 186.304 373.665 184.397C381.218 182.489 379.312 148.441 362.3 161.721Z" fill="#9B9B9B"/>
<path d="M210.257 294.313C209.41 297.563 208.351 300.741 207.292 303.567C201.786 318.331 169.245 324.123 160.634 317.342C160.422 317.2 160.21 316.989 159.998 316.777C152.446 309.218 159.787 290.216 163.81 280.821C169.457 267.611 197.833 258.145 207.292 261.889C214.915 265.068 213.927 280.538 210.257 294.313Z" fill="#BCBCBC"/>
<path d="M-119.81 73.562C-120.093 70.5951 -119.457 67.7695 -117.834 65.2265C-108.94 51.6635 -73.6461 50.7452 -41.3171 71.9373C-8.98808 93.1294 4.42354 127.39 -4.47047 140.953L-4.54113 141.023C-4.04701 132.759 -7.50572 121.174 -19.5762 104.997C-51.0581 62.966 -108.446 48.4847 -119.81 73.562Z" fill="#9B9B9B"/>
<path d="M90.7526 294.03C90.3291 296.644 89.4115 299.116 88.0703 301.377C87.2939 298.127 80.3057 272.626 48.4708 261.96C15.4359 250.94 -29.0342 241.121 -55.5045 261.96C-63.975 268.6 -67.5749 275.452 -68.6338 281.668C-71.2455 276.441 -72.2336 271.143 -71.316 265.845C-67.2925 242.675 -28.3989 237.094 16.3535 244.935C61.1059 252.706 94.7761 270.86 90.7526 294.03Z" fill="#9B9B9B"/>
<path d="M142.986 95.4607C107.834 107.611 93.0104 142.083 91.528 167.655C81.787 148.017 91.3869 119.549 115.245 100.688C141.574 79.8492 177.504 70.0302 201.997 101.041C202.139 101.253 202.35 101.465 202.421 101.677C191.833 93.4828 172.562 85.2885 142.986 95.4607Z" fill="#9B9B9B"/>
<path d="M210.257 294.313C209.904 280.609 206.515 265.139 192.186 269.518C177.504 274.039 160.845 300.671 160.704 317.342C160.493 317.2 160.281 316.989 160.069 316.777C152.516 309.218 159.857 290.216 163.881 280.821C169.528 267.611 197.904 258.145 207.363 261.889C214.916 265.068 213.927 280.538 210.257 294.313Z" fill="#9B9B9B"/>
<path d="M347.972 186.869C352.278 161.933 312.325 153.88 292.349 146.604C272.585 139.399 259.032 141.942 253.526 143.637C262.279 129.509 284.373 136.361 305.62 140.882C348.184 149.924 357.29 173.094 347.972 186.869Z" fill="#9B9B9B"/>
<path d="M237.504 19.8049C237.08 18.8159 236.868 17.6857 236.727 16.4848C248.656 24.3965 279.221 17.9682 296.091 10.3391C308.162 4.82912 306.185 -3.22386 302.444 -9.01636C306.891 -6.26139 310.067 -2.44683 311.267 2.78055C314.091 15.7077 243.504 34.8512 237.504 19.8049Z" fill="#9B9B9B"/>
<path d="M58.4929 451.629C56.8693 441.457 47.5518 431.567 31.4579 422.737C10.6346 411.364 -4.47114 400.061 -17.671 390.596C-24.5885 385.651 -34.1178 384.309 -41.6001 384.167C-27.9061 368.697 6.39931 396.529 23.905 405.713C52.7752 420.83 68.5869 441.951 58.4929 451.629Z" fill="#9B9B9B"/>
<path d="M229.032 412.565C225.997 405.006 216.821 401.898 201.574 401.898H148.634C128.375 401.898 127.104 413.624 127.104 414.189C126.54 412.706 126.187 411.152 125.975 409.456C124.069 392.432 159.998 395.328 178.915 394.339C214.421 392.503 228.962 402.251 229.032 412.565Z" fill="#9B9B9B"/>
<path d="M203.127 505.669C206.727 509.342 209.198 512.945 210.821 515.488C183.786 522.905 155.339 526.79 125.975 526.79C112.493 526.79 99.2225 525.942 86.2344 524.318C86.2344 520.503 86.9403 516.406 89.2697 512.945C152.092 527.779 188.304 514.004 203.127 505.669Z" fill="#9B9B9B"/>
<path d="M361.877 423.655C337.525 450.004 308.795 472.256 276.89 489.21C273.29 487.444 270.043 484.83 268.772 481.086C321.501 461.307 344.301 425.492 349.665 415.814C355.03 417.722 358.983 420.547 361.877 423.655Z" fill="#9B9B9B"/>
<path d="M375.007 271.214C370.772 269.73 340.631 261.324 305.549 301.66C287.832 322.075 281.691 337.898 280.279 348.989C270.82 333.518 282.114 305.757 306.82 285.2C331.949 264.291 361.807 258.286 375.007 271.214Z" fill="#9B9B9B"/>
<path d="M394.912 109.023C387.006 106.975 376.701 94.8247 373.595 76.5289C371.83 65.7916 377.195 55.4781 384.183 52.2286C381.148 56.2551 378.324 62.4009 379.242 70.8777C380.865 84.5819 386.018 98.2861 394.912 109.023Z" fill="#9B9B9B"/>
<path opacity="0.45" d="M320.513 461.236C306.819 471.691 292.207 481.086 276.89 489.28C256.137 500.371 234.044 509.201 210.891 515.558C183.856 522.975 155.409 526.861 126.045 526.861C112.563 526.861 99.2922 526.013 86.3041 524.388C-22.5416 510.967 -114.588 443.011 -161.599 348.706C-179.952 311.973 -191.457 271.284 -194.492 228.264C-195.057 220.635 -195.34 212.935 -195.34 205.236C-195.34 156.706 -184.61 110.719 -165.411 69.4649C-148.258 32.5907 -124.258 -0.46895 -95.1761 -28.0893C-184.822 399.779 144.892 459.046 320.513 461.236Z" fill="url(#paint17_linear_1_2)"/>
<path d="M447.359 205.236C447.359 224.026 445.735 242.463 442.63 260.335C440.936 269.942 438.888 279.408 436.418 288.732C425.265 30.0477 250.208 -117.025 -2.42374 -89.6876C36.8934 -106.853 80.3752 -116.39 125.975 -116.39C264.538 -116.39 382.63 -28.6544 427.736 94.4009C438.959 125.059 445.665 157.836 447.077 192.096C447.288 196.406 447.359 200.785 447.359 205.236Z" fill="url(#paint18_linear_1_2)"/>
</g>
<path d="M383.5 268.5C329 191 204.113 21.5 79.1125 82.5C-45.8876 143.5 66 122.5 70 195C74 267.5 80.5001 284 61.5 328C24.2889 414.173 22.2247 520.5 56.6123 568C91 615.5 309.612 788 381.112 777.5C452.612 767 438.112 643 396.612 577.5C355.112 512 172.61 602.47 283.613 503C322.113 468.5 415.112 540 438.112 540C461.112 540 541.863 483.73 473.112 388C399.5 285.5 438 346 383.5 268.5Z" fill="#E5E5E5" fill-opacity="0.06"/>
</g>
<defs>
<filter id="filter0_f_1_2" x="1186" y="46" width="14" height="14" filterUnits="userSpaceOnUse" color-interpolation-filters="sRGB">
<feFlood flood-opacity="0" result="BackgroundImageFix"/>
<feBlend mode="normal" in="SourceGraphic" in2="BackgroundImageFix" result="shape"/>
<feGaussianBlur stdDeviation="2.5" result="effect1_foregroundBlur_1_2"/>
</filter>
<filter id="filter1_f_1_2" x="277" y="78" width="14" height="14" filterUnits="userSpaceOnUse" color-interpolation-filters="sRGB">
<feFlood flood-opacity="0" result="BackgroundImageFix"/>
<feBlend mode="normal" in="SourceGraphic" in2="BackgroundImageFix" result="shape"/>
<feGaussianBlur stdDeviation="2.5" result="effect1_foregroundBlur_1_2"/>
</filter>
<filter id="filter2_f_1_2" x="65" y="52" width="14" height="14" filterUnits="userSpaceOnUse" color-interpolation-filters="sRGB">
<feFlood flood-opacity="0" result="BackgroundImageFix"/>
<feBlend mode="normal" in="SourceGraphic" in2="BackgroundImageFix" result="shape"/>
<feGaussianBlur stdDeviation="2.5" result="effect1_foregroundBlur_1_2"/>
</filter>
<filter id="filter3_f_1_2" x="1009" y="21" width="14" height="14" filterUnits="userSpaceOnUse" color-interpolation-filters="sRGB">
<feFlood flood-opacity="0" result="BackgroundImageFix"/>
<feBlend mode="normal" in="SourceGraphic" in2="BackgroundImageFix" result="shape"/>
<feGaussianBlur stdDeviation="2.5" result="effect1_foregroundBlur_1_2"/>
</filter>
<filter id="filter4_f_1_2" x="876" y="58" width="14" height="14" filterUnits="userSpaceOnUse" color-interpolation-filters="sRGB">
<feFlood flood-opacity="0" result="BackgroundImageFix"/>
<feBlend mode="normal" in="SourceGraphic" in2="BackgroundImageFix" result="shape"/>
<feGaussianBlur stdDeviation="2.5" result="effect1_foregroundBlur_1_2"/>
</filter>
<filter id="filter5_f_1_2" x="1383" y="58" width="14" height="14" filterUnits="userSpaceOnUse" color-interpolation-filters="sRGB">
<feFlood flood-opacity="0" result="BackgroundImageFix"/>
<feBlend mode="normal" in="SourceGraphic" in2="BackgroundImageFix" result="shape"/>
<feGaussianBlur stdDeviation="2.5" result="effect1_foregroundBlur_1_2"/>
</filter>
<filter id="filter6_f_1_2" x="670" y="25" width="14" height="14" filterUnits="userSpaceOnUse" color-interpolation-filters="sRGB">
<feFlood flood-opacity="0" result="BackgroundImageFix"/>
<feBlend mode="normal" in="SourceGraphic" in2="BackgroundImageFix" result="shape"/>
<feGaussianBlur stdDeviation="2.5" result="effect1_foregroundBlur_1_2"/>
</filter>
<filter id="filter7_f_1_2" x="956" y="206" width="14" height="14" filterUnits="userSpaceOnUse" color-interpolation-filters="sRGB">
<feFlood flood-opacity="0" result="BackgroundImageFix"/>
<feBlend mode="normal" in="SourceGraphic" in2="BackgroundImageFix" result="shape"/>
<feGaussianBlur stdDeviation="2.5" result="effect1_foregroundBlur_1_2"/>
</filter>
<filter id="filter8_f_1_2" x="1113" y="401" width="14" height="14" filterUnits="userSpaceOnUse" color-interpolation-filters="sRGB">
<feFlood flood-opacity="0" result="BackgroundImageFix"/>
<feBlend mode="normal" in="SourceGraphic" in2="BackgroundImageFix" result="shape"/>
<feGaussianBlur stdDeviation="2.5" result="effect1_foregroundBlur_1_2"/>
</filter>
<filter id="filter9_f_1_2" x="1292" y="733" width="14" height="14" filterUnits="userSpaceOnUse" color-interpolation-filters="sRGB">
<feFlood flood-opacity="0" result="BackgroundImageFix"/>
<feBlend mode="normal" in="SourceGraphic" in2="BackgroundImageFix" result="shape"/>
<feGaussianBlur stdDeviation="2.5" result="effect1_foregroundBlur_1_2"/>
</filter>
<filter id="filter10_f_1_2" x="1011" y="761" width="14" height="14" filterUnits="userSpaceOnUse" color-interpolation-filters="sRGB">
<feFlood flood-opacity="0" result="BackgroundImageFix"/>
<feBlend mode="normal" in="SourceGraphic" in2="BackgroundImageFix" result="shape"/>
<feGaussianBlur stdDeviation="2.5" result="effect1_foregroundBlur_1_2"/>
</filter>
<filter id="filter11_f_1_2" x="1305" y="445" width="14" height="14" filterUnits="userSpaceOnUse" color-interpolation-filters="sRGB">
<feFlood flood-opacity="0" result="BackgroundImageFix"/>
<feBlend mode="normal" in="SourceGraphic" in2="BackgroundImageFix" result="shape"/>
<feGaussianBlur stdDeviation="2.5" result="effect1_foregroundBlur_1_2"/>
</filter>
<filter id="filter12_f_1_2" x="1387" y="657" width="14" height="14" filterUnits="userSpaceOnUse" color-interpolation-filters="sRGB">
<feFlood flood-opacity="0" result="BackgroundImageFix"/>
<feBlend mode="normal" in="SourceGraphic" in2="BackgroundImageFix" result="shape"/>
<feGaussianBlur stdDeviation="2.5" result="effect1_foregroundBlur_1_2"/>
</filter>
<filter id="filter13_f_1_2" x="1393" y="311" width="14" height="14" filterUnits="userSpaceOnUse" color-interpolation-filters="sRGB">
<feFlood flood-opacity="0" result="BackgroundImageFix"/>
<feBlend mode="normal" in="SourceGraphic" in2="BackgroundImageFix" result="shape"/>
<feGaussianBlur stdDeviation="2.5" result="effect1_foregroundBlur_1_2"/>
</filter>
<filter id="filter14_f_1_2" x="627" y="459" width="14" height="14" filterUnits="userSpaceOnUse" color-interpolation-filters="sRGB">
<feFlood flood-opacity="0" result="BackgroundImageFix"/>
<feBlend mode="normal" in="SourceGraphic" in2="BackgroundImageFix" result="shape"/>
<feGaussianBlur stdDeviation="2.5" result="effect1_foregroundBlur_1_2"/>
</filter>
<filter id="filter15_f_1_2" x="798" y="445" width="14" height="14" filterUnits="userSpaceOnUse" color-interpolation-filters="sRGB">
<feFlood flood-opacity="0" result="BackgroundImageFix"/>
<feBlend mode="normal" in="SourceGraphic" in2="BackgroundImageFix" result="shape"/>
<feGaussianBlur stdDeviation="2.5" result="effect1_foregroundBlur_1_2"/>
</filter>
<filter id="filter16_f_1_2" x="936" y="579" width="14" height="14" filterUnits="userSpaceOnUse" color-interpolation-filters="sRGB">
<feFlood flood-opacity="0" result="BackgroundImageFix"/>
<feBlend mode="normal" in="SourceGraphic" in2="BackgroundImageFix" result="shape"/>
<feGaussianBlur stdDeviation="2.5" result="effect1_foregroundBlur_1_2"/>
</filter>
<filter id="filter17_f_1_2" x="1393" y="500" width="14" height="14" filterUnits="userSpaceOnUse" color-interpolation-filters="sRGB">
<feFlood flood-opacity="0" result="BackgroundImageFix"/>
<feBlend mode="normal" in="SourceGraphic" in2="BackgroundImageFix" result="shape"/>
<feGaussianBlur stdDeviation="2.5" result="effect1_foregroundBlur_1_2"/>
</filter>
<filter id="filter18_f_1_2" x="1171" y="467" width="14" height="14" filterUnits="userSpaceOnUse" color-interpolation-filters="sRGB">
<feFlood flood-opacity="0" result="BackgroundImageFix"/>
<feBlend mode="normal" in="SourceGraphic" in2="BackgroundImageFix" result="shape"/>
<feGaussianBlur stdDeviation="2.5" result="effect1_foregroundBlur_1_2"/>
</filter>
<filter id="filter19_f_1_2" x="348" y="23" width="14" height="14" filterUnits="userSpaceOnUse" color-interpolation-filters="sRGB">
<feFlood flood-opacity="0" result="BackgroundImageFix"/>
<feBlend mode="normal" in="SourceGraphic" in2="BackgroundImageFix" result="shape"/>
<feGaussianBlur stdDeviation="2.5" result="effect1_foregroundBlur_1_2"/>
</filter>
<filter id="filter20_f_1_2" x="36" y="199" width="14" height="14" filterUnits="userSpaceOnUse" color-interpolation-filters="sRGB">
<feFlood flood-opacity="0" result="BackgroundImageFix"/>
<feBlend mode="normal" in="SourceGraphic" in2="BackgroundImageFix" result="shape"/>
<feGaussianBlur stdDeviation="2.5" result="effect1_foregroundBlur_1_2"/>
</filter>
<filter id="filter21_f_1_2" x="880" y="296" width="14" height="14" filterUnits="userSpaceOnUse" color-interpolation-filters="sRGB">
<feFlood flood-opacity="0" result="BackgroundImageFix"/>
<feBlend mode="normal" in="SourceGraphic" in2="BackgroundImageFix" result="shape"/>
<feGaussianBlur stdDeviation="2.5" result="effect1_foregroundBlur_1_2"/>
</filter>
<filter id="filter22_f_1_2" x="501" y="200" width="14" height="14" filterUnits="userSpaceOnUse" color-interpolation-filters="sRGB">
<feFlood flood-opacity="0" result="BackgroundImageFix"/>
<feBlend mode="normal" in="SourceGraphic" in2="BackgroundImageFix" result="shape"/>
<feGaussianBlur stdDeviation="2.5" result="effect1_foregroundBlur_1_2"/>
</filter>
<filter id="filter23_f_1_2" x="567" y="302" width="14" height="14" filterUnits="userSpaceOnUse" color-interpolation-filters="sRGB">
<feFlood flood-opacity="0" result="BackgroundImageFix"/>
<feBlend mode="normal" in="SourceGraphic" in2="BackgroundImageFix" result="shape"/>
<feGaussianBlur stdDeviation="2.5" result="effect1_foregroundBlur_1_2"/>
</filter>
<filter id="filter24_f_1_2" x="787" y="723" width="14" height="14" filterUnits="userSpaceOnUse" color-interpolation-filters="sRGB">
<feFlood flood-opacity="0" result="BackgroundImageFix"/>
<feBlend mode="normal" in="SourceGraphic" in2="BackgroundImageFix" result="shape"/>
<feGaussianBlur stdDeviation="2.5" result="effect1_foregroundBlur_1_2"/>
</filter>
<filter id="filter25_f_1_2" x="516" y="515" width="14" height="14" filterUnits="userSpaceOnUse" color-interpolation-filters="sRGB">
<feFlood flood-opacity="0" result="BackgroundImageFix"/>
<feBlend mode="normal" in="SourceGraphic" in2="BackgroundImageFix" result="shape"/>
<feGaussianBlur stdDeviation="2.5" result="effect1_foregroundBlur_1_2"/>
</filter>
<filter id="filter26_f_1_2" x="557" y="675" width="14" height="14" filterUnits="userSpaceOnUse" color-interpolation-filters="sRGB">
<feFlood flood-opacity="0" result="BackgroundImageFix"/>
<feBlend mode="normal" in="SourceGraphic" in2="BackgroundImageFix" result="shape"/>
<feGaussianBlur stdDeviation="2.5" result="effect1_foregroundBlur_1_2"/>
</filter>
<filter id="filter27_f_1_2" x="282" y="729" width="14" height="14" filterUnits="userSpaceOnUse" color-interpolation-filters="sRGB">
<feFlood flood-opacity="0" result="BackgroundImageFix"/>
<feBlend mode="normal" in="SourceGraphic" in2="BackgroundImageFix" result="shape"/>
<feGaussianBlur stdDeviation="2.5" result="effect1_foregroundBlur_1_2"/>
</filter>
<filter id="filter28_f_1_2" x="36" y="759" width="14" height="14" filterUnits="userSpaceOnUse" color-interpolation-filters="sRGB">
<feFlood flood-opacity="0" result="BackgroundImageFix"/>
<feBlend mode="normal" in="SourceGraphic" in2="BackgroundImageFix" result="shape"/>
<feGaussianBlur stdDeviation="2.5" result="effect1_foregroundBlur_1_2"/>
</filter>
<filter id="filter29_f_1_2" x="318" y="307" width="14" height="14" filterUnits="userSpaceOnUse" color-interpolation-filters="sRGB">
<feFlood flood-opacity="0" result="BackgroundImageFix"/>
<feBlend mode="normal" in="SourceGraphic" in2="BackgroundImageFix" result="shape"/>
<feGaussianBlur stdDeviation="2.5" result="effect1_foregroundBlur_1_2"/>
</filter>
<filter id="filter30_f_1_2" x="94" y="514" width="14" height="14" filterUnits="userSpaceOnUse" color-interpolation-filters="sRGB">
<feFlood flood-opacity="0" result="BackgroundImageFix"/>
<feBlend mode="normal" in="SourceGraphic" in2="BackgroundImageFix" result="shape"/>
<feGaussianBlur stdDeviation="2.5" result="effect1_foregroundBlur_1_2"/>
</filter>
<filter id="filter31_f_1_2" x="148" y="640" width="14" height="14" filterUnits="userSpaceOnUse" color-interpolation-filters="sRGB">
<feFlood flood-opacity="0" result="BackgroundImageFix"/>
<feBlend mode="normal" in="SourceGraphic" in2="BackgroundImageFix" result="shape"/>
<feGaussianBlur stdDeviation="2.5" result="effect1_foregroundBlur_1_2"/>
</filter>
<radialGradient id="paint0_radial_1_2" cx="0" cy="0" r="1" gradientUnits="userSpaceOnUse" gradientTransform="translate(1140.47 650.003) scale(65.9981 65.6176)">
<stop stop-color="#90DD6F"/>
<stop offset="1" stop-color="#B8FFA9" stop-opacity="0"/>
</radialGradient>
<radialGradient id="paint1_radial_1_2" cx="0" cy="0" r="1" gradientUnits="userSpaceOnUse" gradientTransform="translate(1143.13 628.621) scale(67.0302 66.6438)">
<stop stop-color="#00B3DC"/>
<stop offset="1" stop-color="#056DB0"/>
</radialGradient>
<linearGradient id="paint2_linear_1_2" x1="1104.1" y1="565.447" x2="1116.63" y2="723.406" gradientUnits="userSpaceOnUse">
<stop stop-color="#F2F236"/>
<stop offset="1" stop-color="#F2F236" stop-opacity="0"/>
</linearGradient>
<linearGradient id="paint3_linear_1_2" x1="1166.08" y1="560.532" x2="1178.61" y2="718.491" gradientUnits="userSpaceOnUse">
<stop stop-color="#F2F236"/>
<stop offset="1" stop-color="#F2F236" stop-opacity="0"/>
</linearGradient>
<linearGradient id="paint4_linear_1_2" x1="1171" y1="560.142" x2="1183.53" y2="718.101" gradientUnits="userSpaceOnUse">
<stop stop-color="#F2F236"/>
<stop offset="1" stop-color="#F2F236" stop-opacity="0"/>
</linearGradient>
<linearGradient id="paint5_linear_1_2" x1="1132.3" y1="563.211" x2="1144.83" y2="721.17" gradientUnits="userSpaceOnUse">
<stop stop-color="#F2F236"/>
<stop offset="1" stop-color="#F2F236" stop-opacity="0"/>
</linearGradient>
<linearGradient id="paint6_linear_1_2" x1="1153.69" y1="561.515" x2="1166.21" y2="719.474" gradientUnits="userSpaceOnUse">
<stop stop-color="#F2F236"/>
<stop offset="1" stop-color="#F2F236" stop-opacity="0"/>
</linearGradient>
<linearGradient id="paint7_linear_1_2" x1="1122.14" y1="564.017" x2="1134.66" y2="721.975" gradientUnits="userSpaceOnUse">
<stop stop-color="#F2F236"/>
<stop offset="1" stop-color="#F2F236" stop-opacity="0"/>
</linearGradient>
<linearGradient id="paint8_linear_1_2" x1="1132" y1="721.204" x2="1140.19" y2="646.096" gradientUnits="userSpaceOnUse">
<stop stop-color="#00ACD8"/>
<stop offset="1" stop-color="#0983BD"/>
</linearGradient>
<linearGradient id="paint9_linear_1_2" x1="1137.57" y1="717.975" x2="1146.72" y2="639.474" gradientUnits="userSpaceOnUse">
<stop stop-color="#056EB1"/>
<stop offset="1" stop-color="#00A9D7" stop-opacity="0.3"/>
</linearGradient>
<linearGradient id="paint10_linear_1_2" x1="1180.5" y1="564.95" x2="1146.06" y2="633.268" gradientUnits="userSpaceOnUse">
<stop stop-color="#E2FFB5"/>
<stop offset="1" stop-color="#FFFFB3" stop-opacity="0"/>
</linearGradient>
<radialGradient id="paint11_radial_1_2" cx="0" cy="0" r="1" gradientUnits="userSpaceOnUse" gradientTransform="translate(13.0818 13.0811) rotate(-156.802) scale(6.22669 6.22647)">
<stop stop-color="white"/>
<stop offset="1" stop-color="#DDDDDD"/>
</radialGradient>
<radialGradient id="paint12_radial_1_2" cx="0" cy="0" r="1" gradientUnits="userSpaceOnUse" gradientTransform="translate(13.0818 13.0811) rotate(-156.802) scale(6.22669 6.22647)">
<stop stop-color="white"/>
<stop offset="1" stop-color="#DDDDDD"/>
</radialGradient>
<linearGradient id="paint13_linear_1_2" x1="4.08805" y1="0" x2="4.08805" y2="103.014" gradientUnits="userSpaceOnUse">
<stop stop-color="#3BB094"/>
<stop offset="1" stop-color="#232030"/>
</linearGradient>
<linearGradient id="paint14_linear_1_2" x1="4.08806" y1="0" x2="4.08806" y2="103.014" gradientUnits="userSpaceOnUse">
<stop stop-color="#3BB094"/>
<stop offset="1" stop-color="#232030"/>
</linearGradient>
<radialGradient id="paint15_radial_1_2" cx="0" cy="0" r="1" gradientUnits="userSpaceOnUse" gradientTransform="translate(126.007 205.977) scale(384.93 385.218)">
<stop stop-color="#F8F8F8"/>
<stop offset="1" stop-color="white" stop-opacity="0"/>
</radialGradient>
<radialGradient id="paint16_radial_1_2" cx="0" cy="0" r="1" gradientUnits="userSpaceOnUse" gradientTransform="translate(111.817 34.9621) scale(490.729 491.096)">
<stop stop-color="#E8E8E8"/>
<stop offset="1" stop-color="#DFDFDF"/>
</radialGradient>
<linearGradient id="paint17_linear_1_2" x1="63.8968" y1="670.403" x2="60.7567" y2="-126.644" gradientUnits="userSpaceOnUse">
<stop/>
<stop offset="1" stop-opacity="0.2"/>
</linearGradient>
<linearGradient id="paint18_linear_1_2" x1="411.847" y1="-116.532" x2="216.166" y2="100.117" gradientUnits="userSpaceOnUse">
<stop stop-color="#B7B7B7"/>
<stop offset="0.557292" stop-color="#AEAEAE" stop-opacity="0.2"/>
</linearGradient>
<clipPath id="clip0_1_2">
<rect width="1440" height="800" fill="white"/>
</clipPath>
<clipPath id="clip1_1_2">
<rect width="153" height="152" fill="white" transform="translate(1063.98 574)"/>
</clipPath>
<clipPath id="clip2_1_2">
<rect width="832" height="832" fill="white" transform="translate(-290 -210)"/>
</clipPath>
</defs>
</svg>
